<?xml version="1.0" encoding="UTF-8" standalone="no"?>
<!-- Created with Inkscape (http://www.inkscape.org/) -->

<svg
   width="64"
   height="64"
   viewBox="0 0 16.933333 16.933333"
   version="1.1"
   id="svg1"
   inkscape:version="1.3 (0e150ed6c4, 2023-07-21)"
   sodipodi:docname="xftl_icon.svg"
   inkscape:export-filename="xftl_icon.png"
   inkscape:export-xdpi="96"
   inkscape:export-ydpi="96"
   xmlns:inkscape="http://www.inkscape.org/namespaces/inkscape"
   xmlns:sodipodi="http://sodipodi.sourceforge.net/DTD/sodipodi-0.dtd"
   xmlns="http://www.w3.org/2000/svg"
   xmlns:svg="http://www.w3.org/2000/svg">
  <sodipodi:namedview
     id="namedview1"
     pagecolor="#ffffff"
     bordercolor="#666666"
     borderopacity="1.0"
     inkscape:showpageshadow="2"
     inkscape:pageopacity="0.0"
     inkscape:pagecheckerboard="0"
     inkscape:deskcolor="#d1d1d1"
     inkscape:document-units="mm"
     inkscape:zoom="8.0731595"
     inkscape:cx="17.217547"
     inkscape:cy="25.702453"
     inkscape:window-width="1920"
     inkscape:window-height="1007"
     inkscape:window-x="0"
     inkscape:window-y="0"
     inkscape:window-maximized="1"
     inkscape:current-layer="layer1" />
  <defs
     id="defs1" />
  <g
     inkscape:label="Ebene 1"
     inkscape:groupmode="layer"
     id="layer1">
    <path
       sodipodi:type="spiral"
       style="display:none;fill:none;fill-rule:evenodd;stroke:#000000;stroke-width:0.264583"
       id="path1"
       sodipodi:cx="15.43618"
       sodipodi:cy="15.082231"
       sodipodi:expansion="1"
       sodipodi:revolution="2.0014088"
       sodipodi:radius="11.978104"
       sodipodi:argument="-21.217684"
       sodipodi:t0="0"
       d="m 15.43618,15.082231 c -0.644095,-0.628904 0.529976,-1.178507 1.045279,-1.07053 1.396442,0.292613 1.641624,2.073881 1.095779,3.161088 -0.976388,1.944758 -3.569054,2.202161 -5.276896,1.121029 -2.5063257,-1.586605 -2.779024,-5.084407 -1.146279,-7.392704 2.176193,-3.0765973 6.60691,-3.3628265 9.508513,-1.1715293 3.651372,2.7575233 3.950214,8.1328163 1.196779,11.6243213 -3.334778,4.22868 -9.66064,4.539677 -13.7401295,1.222029 C 3.3116882,18.666202 2.9887824,11.386276 6.8719467,6.7199967 c 0.022671,-0.027243 0.045463,-0.054385 0.068375,-0.081424"
       transform="matrix(0.67734046,0,0,0.74816094,-1.0518903,-3.399039)"
       inkscape:label="Spiral1" />
    <path
       sodipodi:type="spiral"
       style="display:none;fill:none;fill-rule:evenodd;stroke:#ff0000;stroke-width:0.264583"
       id="path1-2"
       sodipodi:cx="15.43618"
       sodipodi:cy="15.082231"
       sodipodi:expansion="1"
       sodipodi:revolution="2.0014088"
       sodipodi:radius="11.978104"
       sodipodi:argument="-21.217684"
       sodipodi:t0="0"
       d="m 15.43618,15.082231 c -0.644095,-0.628904 0.529976,-1.178507 1.045279,-1.07053 1.396442,0.292613 1.641624,2.073881 1.095779,3.161088 -0.976388,1.944758 -3.569054,2.202161 -5.276896,1.121029 -2.5063257,-1.586605 -2.779024,-5.084407 -1.146279,-7.392704 2.176193,-3.0765973 6.60691,-3.3628265 9.508513,-1.1715293 3.651372,2.7575233 3.950214,8.1328163 1.196779,11.6243213 -3.334778,4.22868 -9.66064,4.539677 -13.7401295,1.222029 C 3.3116882,18.666202 2.9887824,11.386276 6.8719467,6.7199967 c 0.022671,-0.027243 0.045463,-0.054385 0.068375,-0.081424"
       transform="matrix(-0.66453958,0.13106201,-0.14476542,-0.73402164,21.814542,16.888694)"
       inkscape:label="Spiral2" />
    <path
       style="display:none;fill:none;stroke:#000000;stroke-width:0.264583px;stroke-linecap:butt;stroke-linejoin:miter;stroke-opacity:1"
       d="M 2.2941245,1.8549637 6.3055639,3.015135"
       id="path2"
       inkscape:label="Cutoff" />
    <path
       style="fill:#74ffff;stroke:#000000;stroke-width:0.50000001;fill-opacity:1;stroke-dasharray:none"
       d="m 30.718584,56.78521 c -2.337189,-0.248518 -5.283032,-1.067519 -7.456367,-2.073013 -4.286338,-1.983078 -8.102609,-5.350769 -10.906513,-9.624521 -6.0474815,-9.217661 -6.8148095,-22.002092 -1.960089,-32.657 0.706652,-1.550925 1.783533,-3.5078127 2.006034,-3.6453261 0.08738,-0.054002 5.752034,1.4956061 5.898358,1.6135391 0.01627,0.01312 -0.24344,0.411375 -0.57714,0.88502 -3.330858,4.72772 -4.940339,11.087786 -4.342891,17.161466 0.585859,5.955852 2.909302,11.215934 6.686517,15.137714 2.81237,2.920008 6.090552,4.822571 9.769463,5.669915 1.600808,0.368707 4.791549,0.454505 6.470483,0.17399 9.436511,-1.576642 15.294538,-10.482478 13.289232,-20.20334 -0.816713,-3.959072 -3.005416,-7.363984 -6.07372,-9.448738 -4.111943,-2.793851 -9.63911,-2.396909 -12.793061,0.918754 -1.57506,1.655818 -2.235947,3.236657 -2.330988,5.575707 -0.05085,1.251474 -0.01794,1.666427 0.201386,2.539278 0.366905,1.460173 0.921893,2.526362 1.73948,3.341722 0.898157,0.895714 1.653282,1.255353 2.78883,1.328228 0.778612,0.04997 0.964826,0.017 1.534608,-0.271735 1.261841,-0.639422 2.0113,-1.741771 1.832427,-2.695243 -0.04304,-0.229431 -0.301084,-0.686798 -0.57343,-1.016373 -0.272345,-0.329575 -0.495172,-0.672491 -0.495172,-0.762037 0,-0.562526 1.494887,-1.541937 2.353478,-1.541937 1.44822,0 2.943043,1.597256 3.356439,3.58644 0.235046,1.130998 0.08384,3.253235 -0.303481,4.259478 -1.236689,3.212871 -4.114842,5.159419 -7.624893,5.156854 -3.136098,-0.0023 -5.944091,-1.451348 -7.977373,-4.1167 -1.884896,-2.47084 -2.811933,-5.371277 -2.821725,-8.82838 -0.0079,-2.791099 0.55627,-5.247502 1.749216,-7.616014 2.284491,-4.535703 6.386293,-7.556243 11.372888,-8.374922 1.448276,-0.237772 4.188269,-0.174972 5.593344,0.128198 3.255908,0.702519 6.076341,2.206311 8.451781,4.5063 3.61462,3.499812 5.702011,7.746655 6.472683,13.168822 0.213387,1.501302 0.244023,4.921678 0.05759,6.429858 -1.04481,8.452352 -5.823184,15.47685 -12.967195,19.062561 -3.687285,1.850717 -8.26538,2.673225 -12.420203,2.231435 z"
       id="path3"
       transform="scale(0.26458333)" />
  </g>
</svg>
